<svg xmlns="http://www.w3.org/2000/svg" width="1200" height="630" viewBox="0 0 1200 630" role="img" aria-labelledby="title desc"><title id="title">Keyword Ops</title><desc id="desc">Tactical red versus blue keyword intelligence operation.</desc><defs><linearGradient id="bg" x1="0" y1="0" x2="1" y2="1"><stop offset="0" stop-color="#071b24"/><stop offset=".55" stop-color="#031015"/><stop offset="1" stop-color="#071b1c"/></linearGradient><radialGradient id="glow"><stop offset="0" stop-color="#72e6df" stop-opacity=".22"/><stop offset="1" stop-color="#72e6df" stop-opacity="0"/></radialGradient><filter id="blur"><feGaussianBlur stdDeviation="24"/></filter></defs><rect width="1200" height="630" fill="url(#bg)"/><circle cx="880" cy="300" r="340" fill="url(#glow)" filter="url(#blur)"/><g stroke="#72d7d2" stroke-opacity=".12"><path d="M0 70H1200M0 140H1200M0 210H1200M0 280H1200M0 350H1200M0 420H1200M0 490H1200M0 560H1200"/><path d="M100 0V630M200 0V630M300 0V630M400 0V630M500 0V630M600 0V630M700 0V630M800 0V630M900 0V630M1000 0V630M1100 0V630"/></g><g transform="translate(74 96)"><text fill="#75b9bc" font-family="Arial,Helvetica,sans-serif" font-size="18" font-weight="700" letter-spacing="6">PARTI // SIGNAL COMMAND</text><text y="100" fill="#f3fbf8" font-family="Arial,Helvetica,sans-serif" font-size="82" font-weight="900" letter-spacing="4">KEYWORD</text><text y="184" fill="#f3fbf8" font-family="Arial,Helvetica,sans-serif" font-size="82" font-weight="900" letter-spacing="4">OPS</text><rect y="214" width="132" height="6" fill="#ff6576"/><rect x="144" y="214" width="132" height="6" fill="#61adff"/><text y="274" fill="#b6cbcd" font-family="Arial,Helvetica,sans-serif" font-size="24">4–10 AGENTS · 2 CELLS · 25 TARGETS</text><text y="316" fill="#759296" font-family="Arial,Helvetica,sans-serif" font-size="19">ONE CLUE. READ THE GRID. AVOID DANGER.</text></g><g transform="translate(690 80)"><rect width="430" height="430" rx="12" fill="#06161d" stroke="#5aaeb1" stroke-opacity=".38" stroke-width="2"/><path d="M0 20V0H20M410 0H430V20M430 410V430H410M20 430H0V410" fill="none" stroke="#84e4df" stroke-width="4"/><g transform="translate(28 28)"><rect width="66" height="66" rx="6" fill="#612632" stroke="#ff6576"/><rect x="77" width="66" height="66" rx="6" fill="#183e69" stroke="#61adff"/><rect x="154" width="66" height="66" rx="6" fill="#4c4635" stroke="#b9a976"/><rect x="231" width="66" height="66" rx="6" fill="#183e69" stroke="#61adff"/><rect x="308" width="66" height="66" rx="6" fill="#612632" stroke="#ff6576"/><rect y="77" width="66" height="66" rx="6" fill="#183e69" stroke="#61adff"/><rect x="77" y="77" width="66" height="66" rx="6" fill="#612632" stroke="#ff6576"/><rect x="154" y="77" width="66" height="66" rx="6" fill="#4c4635" stroke="#b9a976"/><rect x="231" y="77" width="66" height="66" rx="6" fill="#612632" stroke="#ff6576"/><rect x="308" y="77" width="66" height="66" rx="6" fill="#183e69" stroke="#61adff"/><rect y="154" width="66" height="66" rx="6" fill="#4c4635" stroke="#b9a976"/><rect x="77" y="154" width="66" height="66" rx="6" fill="#183e69" stroke="#61adff"/><rect x="154" y="154" width="66" height="66" rx="6" fill="#090b0c" stroke="#ffb46b" stroke-width="3"/><rect x="231" y="154" width="66" height="66" rx="6" fill="#612632" stroke="#ff6576"/><rect x="308" y="154" width="66" height="66" rx="6" fill="#4c4635" stroke="#b9a976"/><rect y="231" width="66" height="66" rx="6" fill="#612632" stroke="#ff6576"/><rect x="77" y="231" width="66" height="66" rx="6" fill="#4c4635" stroke="#b9a976"/><rect x="154" y="231" width="66" height="66" rx="6" fill="#183e69" stroke="#61adff"/><rect x="231" y="231" width="66" height="66" rx="6" fill="#4c4635" stroke="#b9a976"/><rect x="308" y="231" width="66" height="66" rx="6" fill="#612632" stroke="#ff6576"/><rect y="308" width="66" height="66" rx="6" fill="#183e69" stroke="#61adff"/><rect x="77" y="308" width="66" height="66" rx="6" fill="#612632" stroke="#ff6576"/><rect x="154" y="308" width="66" height="66" rx="6" fill="#4c4635" stroke="#b9a976"/><rect x="231" y="308" width="66" height="66" rx="6" fill="#612632" stroke="#ff6576"/><rect x="308" y="308" width="66" height="66" rx="6" fill="#183e69" stroke="#61adff"/></g></g></svg>